<?xml version="1.0" encoding="UTF-8"?>
<svg id="Layer_1" data-name="Layer 1" xmlns="http://www.w3.org/2000/svg" viewBox="0 0 357.12 57.86">
  <path d="M15.75,16.44c0-3.08-1.14-4.65-3.3-4.65-1.68,0-3.04.7-3.04,1.57v30.18c0,1.43,1.28,2.49,2.97,2.49,4.32,0,3.3-6.01,3.3-8.86h9.34v8.86c0,4.21-6.59,8.83-12.56,8.83-6.26,0-12.45-4.25-12.45-8.53V11.35C0,6.99,6.01,2.93,12.45,2.93s12.56,4.14,12.56,8.79v7.47h-9.45c.07-.92.18-1.83.18-2.75Z"/>
  <path d="M53.66,2.89v52.19h-9.34V11.5h-7.41v43.58h-9.41V2.89h26.16Z"/>
  <path d="M80.65,12.49h-13.62v10.66h11.72v9.48h-11.72v12.89h13.62v9.49c-7.62,0-15.23-.07-22.89-.07,0-17.29-.07-34.57-.07-51.86,7.65,0,15.31-.07,22.96-.07v9.48Z"/>
  <path d="M84.42,3.08h13.95c7.21,0,11.57,5.2,11.57,13.77,0,4.28-1.21,6.99-4.69,10.55,3.96,1.68,5.9,5.68,5.9,12.19,0,8.31-5.64,15.2-12.41,15.2h-14.32V3.08ZM93.86,45.34c4.5-.37,6.96-2.67,6.96-6.67,0-4.39-1.87-6.15-6.96-6.41v13.07ZM93.9,23c3.85-.29,5.68-2.12,5.68-5.57,0-3.15-1.98-4.94-5.68-4.94v10.51Z"/>
  <path d="M174.42,54.71l-.15-22.12h-.84c-3.08,0-4.87.92-4.87,2.45v17.18c0,.73-1.39,2.49-1.98,2.49l-8.72.11c.26-.48,1.35-2.38,1.35-2.97v-17.32c0-2.75,1.25-4.54,3.92-5.53-3-3.19-3.85-5.71-3.85-11.57,0-9.16,4.32-14.21,12.12-14.21,4.06,0,8.17.07,12.27.07,0,17.14-.15,34.28-.15,51.42h-9.12ZM174.28,12.67c-3.81.26-5.64,1.79-5.64,4.69,0,3.81,1.57,5.49,5.64,5.75v-10.44Z"/>
  <path d="M187.75,11.79c0-4.1,6.59-8.79,12.34-8.79,1.61,0,3.26.29,4.91.84,4.47,1.5,7.87,4.8,7.87,7.58v34.02c0,4.54-6.52,9.41-12.56,9.41-6.48,0-12.56-4.29-12.56-8.83V11.79ZM197.16,44.02c0,.7,1.61,1.5,3,1.5,1.65,0,3.3-.81,3.3-1.65V13.91c0-.81-1.5-1.57-3.15-1.57-1.46,0-3.15.73-3.15,1.39v30.29Z"/>
  <path d="M226.53,3.22v43.43h5.4V3.15h9.41v43.51h6.48V3.15h9.27v52.08h-39.97V3.22h9.41Z"/>
  <path d="M280.16,16.49c0-2.6-2.16-4.65-4.91-4.65-2.97,0-5.13,2.34-5.49,5.93-2.93,0-5.86-.07-8.79-.07.55-8.2,6.88-14.14,15.05-14.14,7.36,0,13.48,5.86,13.48,12.85,0,4.28-2.16,7.91-6.56,10.99,4.94,2.27,7.47,6.37,7.47,12.05,0,9.23-6.99,16.19-16.26,16.19-6.15,0-11.35-3.04-12.96-7.65-.73-2.09-.92-4.54-1.14-6.74,3.11,0,6.12.07,9.01.29.33,3.66,2.27,5.68,5.53,5.68,4.06,0,6.3-2.97,6.3-8.35,0-3.96-4.32-6.74-10.77-6.96v-7.73c5.75-.99,10.03-4.28,10.03-7.69Z"/>
  <path d="M303.47,19.85l6.81-16.7h9.3l-9.27,23.51,12.41,28.12h-8.86c-.55,0-1.35-.59-1.61-1.21l-8.75-20.25v21.46h-9.27c0-17.21-.15-34.42-.15-51.64h9.19l.18,16.7Z"/>
  <path d="M327.36,3.77v37.71h-2.24v13.37h7.49v-5.93h17v5.93h7.52v-13.34l-6.57-.06c-1.99-5.84-2.88-12.73-2.88-22.12,0-5.19.16-10.36.16-15.55h-20.48ZM339.28,11.21c.23,9.23-.1,21.55,2.94,30.2h-6.39V11.21h3.45Z"/>
  <path d="M157.15,28.93c0-12.74-7.52-23.42-17.64-26.25V0h-10.72v2.67c-10.12,2.84-17.64,13.51-17.64,26.25s7.52,23.42,17.64,26.25v2.67h10.72v-2.67c10.12-2.84,17.64-13.51,17.64-26.25ZM120.04,28.93c0-6.92,3.61-12.85,8.74-15.33v30.67c-5.13-2.49-8.74-8.41-8.74-15.33ZM139.51,44.29V13.57c5.16,2.47,8.8,8.41,8.8,15.36s-3.64,12.88-8.8,15.36Z"/>
</svg>